name C:\Users\u0101727\Documents\MyRepositories\predictivesimulations\OpenSimModel\subject1\IK\IK_motion_ave_running.mot
datacolumns 30
datarows 19
range 0.17874736 0.30744546
endheader
time	pelvis_tilt	pelvis_list	pelvis_rotation	pelvis_tx	pelvis_ty	pelvis_tz	hip_flexion_l	hip_adduction_l	hip_rotation_l	hip_flexion_r	hip_adduction_r	hip_rotation_r	knee_angle_l	knee_angle_r	ankle_angle_l	ankle_angle_r	subtalar_angle_l	subtalar_angle_r	lumbar_extension	lumbar_bending	lumbar_rotation	arm_flex_l	arm_add_l	arm_rot_l	arm_flex_r	arm_add_r	arm_rot_r	elbow_flex_l	elbow_flex_r	
          0.17874736	         -5.75566501	         -5.20225079	         -5.26798698	          0.47558524	          0.85789877	          0.01437111	         30.58650543	         -4.96239840	         -1.92142736	         13.61530432	         11.31203568	          2.08565724	        -85.90270744	        -38.81563871	        -10.73299297	         22.55056835	        -16.22738074	          5.50379757	         -5.94123784	          7.79162089	          7.67163071	        -23.39884273	        -22.89449025	          3.68182805	         -0.73516046	        -31.96509641	          8.09831823	         51.28778034	         71.90485679	
          0.18589726	         -6.06988789	         -4.73526142	         -5.00684685	          0.49535327	          0.86075204	          0.01404734	         32.33879856	         -4.35650687	         -1.68778082	         11.65469404	         10.72275986	          2.48594444	        -84.27392550	        -37.14226547	         -9.75812382	         21.84265928	        -16.34683281	          5.18058121	         -5.48734585	          7.12371902	          8.35453365	        -24.48741569	        -22.84860995	          3.13982841	         -0.18579243	        -31.94923877	          7.83302670	         51.37491057	         73.44380626	
          0.19304715	         -6.38006122	         -4.23280768	         -4.71211375	          0.51535399	          0.86404678	          0.01370305	         33.91532821	         -3.69382273	         -1.48261804	          9.64695338	         10.10631022	          2.88310502	        -82.27889550	        -35.35132448	         -8.82439124	         20.73325807	        -16.36616134	          4.70696053	         -5.00827271	          6.41020328	          8.97040415	        -25.58751522	        -22.81085858	          2.53869694	          0.24894741	        -31.91633708	          7.55657681	         51.55013455	         75.01719905	
          0.20019704	         -6.67888474	         -3.70538708	         -4.38869464	          0.53557051	          0.86770308	          0.01333626	         35.31288242	         -2.98782745	         -1.30059711	          7.60870225	          9.47201061	          3.25392139	        -79.95585548	        -33.48321497	         -7.92633362	         19.25199792	        -16.29033367	          4.11687620	         -4.51828318	          5.66529370	          9.51948139	        -26.69375823	        -22.77456248	          1.88341163	          0.58838768	        -31.87219115	          7.28600592	         51.79329166	         76.60052413	
          0.20734694	         -6.95619030	         -3.15906761	         -4.03995199	          0.55600909	          0.87168775	          0.01294851	         36.50410818	         -2.24604311	         -1.13941670	          5.55055984	          8.82562156	          3.57260200	        -77.29989842	        -31.56763288	         -7.06345047	         17.38541966	        -16.11328195	          3.42743101	         -4.03265640	          4.89762861	          9.99605164	        -27.79970514	        -22.73422981	          1.17686010	          0.83990774	        -31.82115638	          7.03994522	         52.09545474	         78.17256022	
          0.21449683	         -7.20111357	         -2.60014213	         -3.66973553	          0.57666909	          0.87594132	          0.01253599	         37.46227396	         -1.47571453	         -0.99154699	          3.49139112	          8.17211143	          3.79954428	        -74.31696011	        -29.64737176	         -6.23666527	         15.13523827	        -15.82775306	          2.67802014	         -3.56768334	          4.11820901	         10.39414526	        -28.89736074	        -22.68583804	          0.42209804	          1.01021582	        -31.76725494	          6.83407339	         52.44877698	         79.70378361	
          0.22164673	         -7.41225197	         -2.03706413	         -3.28589396	          0.59750597	          0.88035827	          0.01210265	         38.20944370	         -0.68884213	         -0.84698617	          1.45139869	          7.51837006	          3.92179518	        -71.07148484	        -27.76204651	         -5.43953090	         12.57790168	        -15.45182779	          1.91156721	         -3.13080744	          3.33844904	         10.72364939	        -29.97897294	        -22.62826786	         -0.36749787	          1.11981696	        -31.71359016	          6.67400623	         52.83632606	         81.16868154	
          0.22879662	         -7.58393603	         -1.47308666	         -2.89489125	          0.61849645	          0.88487103	          0.01165650	         38.74863286	          0.10771734	         -0.70081787	         -0.56011869	          6.86978375	          3.92569353	        -67.59746291	        -25.93951852	         -4.66809386	          9.75515897	        -14.99073064	          1.15636015	         -2.73223493	          2.56436775	         10.98844700	        -31.04101447	        -22.56199558	         -1.18207139	          1.17949453	        -31.66300435	          6.56429148	         53.25368236	         82.55229117	
          0.23594652	         -7.70499093	         -0.91445437	         -2.50496190	          0.63963417	          0.88940248	          0.01120590	         39.05134516	          0.90414202	         -0.54439152	         -2.51869276	          6.23519032	          3.77506572	        -63.90495045	        -24.23341740	         -3.92119791	          6.68470478	        -14.43865494	          0.45179074	         -2.38741443	          1.80728341	         11.18466068	        -32.07344200	        -22.48686948	         -2.01193636	          1.19156695	        -31.61761784	          6.51679917	         53.70142833	         83.81654018	
          0.24309641	         -7.77662645	         -0.36566578	         -2.12069770	          0.66087519	          0.89386098	          0.01075794	         39.14747840	          1.69339467	         -0.36901816	         -4.40900798	          5.62067770	          3.47115323	        -60.06306903	        -22.67494974	         -3.19452550	          3.44918736	        -13.81170277	         -0.17582411	         -2.09858801	          1.07365247	         11.32055683	        -33.06893671	        -22.40838246	         -2.84262082	          1.16523671	        -31.57736874	          6.52366103	         54.17438054	         84.94504835	
          0.25024631	         -7.80015212	          0.16946275	         -1.74918094	          0.68218373	          0.89817890	          0.01032694	         39.06176978	          2.46631490	         -0.17156053	         -6.22114789	          5.03343287	          3.02588479	        -56.12693642	        -21.28816916	         -2.48180673	          0.11513914	        -13.12121349	         -0.71926786	         -1.86691756	          0.36847489	         11.40608816	        -34.02497719	        -22.33051932	         -3.66325312	          1.10996569	        -31.54219039	          6.57992462	         54.67109446	         85.93017334	
          0.25739620	         -7.77493496	          0.68439685	         -1.39631690	          0.70353822	          0.90228119	          0.00992416	         38.80329111	          3.21324058	          0.05094626	         -7.93403165	          4.48285926	          2.43930710	        -52.14340282	        -20.11430900	         -1.78325354	         -3.26303075	        -12.37490050	         -1.16563279	         -1.69457915	         -0.30015080	         11.44596951	        -34.93273498	        -22.25754322	         -4.46091942	          1.02632780	        -31.51171760	          6.68328270	         55.19095807	         86.75174222	
          0.26454609	         -7.69711341	          1.17371333	         -1.06729039	          0.72490234	          0.90606940	          0.00956426	         38.38525792	          3.92438339	          0.30561080	         -9.52619135	          3.98101295	          1.71720771	        -48.18288262	        -19.20635494	         -1.09774327	         -6.60797759	        -11.58144827	         -1.50899237	         -1.58917618	         -0.92355821	         11.44004180	        -35.78342294	        -22.19744801	         -5.22239212	          0.91632518	        -31.48479979	          6.82789203	         55.73962868	         87.38632248	
          0.27169599	         -7.58097438	          1.63204451	         -0.76378453	          0.74624359	          0.90950058	          0.00925055	         37.85379760	          4.59276313	          0.58766038	        -10.98161206	          3.53075896	          0.89933912	        -44.30844660	        -18.57820744	         -0.42631430	         -9.85420245	        -10.76149544	         -1.77159222	         -1.53570582	         -1.49956480	         11.40167676	        -36.56792891	        -22.15443939	         -5.93459347	          0.78239360	        -31.45793782	          7.00116869	         56.30783209	         87.83665772	
          0.27884588	         -7.43919118	          2.05353114	         -0.48679320	          0.76754131	          0.91254210	          0.00898325	         37.24375461	          5.21262550	          0.89137948	        -12.28295987	          3.13511238	          0.01871453	        -40.56955575	        -18.24549907	          0.22613292	        -12.95535891	         -9.92961017	         -1.97660475	         -1.52021887	         -2.02576629	         11.34180438	        -37.27658812	        -22.13155620	         -6.58680858	          0.62259296	        -31.42813687	          7.19176556	         56.88612532	         88.10358010	
          0.28599578	         -7.27993842	          2.42763447	         -0.23898372	          0.78876378	          0.91509945	          0.00876741	         36.58223594	          5.77228319	          1.21645922	        -13.39176565	          2.80441240	         -0.89204667	        -37.04892726	        -18.26675653	          0.85119404	        -15.83851644	         -9.10359503	         -2.14665504	         -1.53513030	         -2.49329055	         11.26444809	        -37.88953432	        -22.13570446	         -7.15983784	          0.43196524	        -31.39040319	          7.39145956	         57.46692351	         88.16281688	
          0.29314567	         -7.12796432	          2.74628009	         -0.01743245	          0.80989405	          0.91715809	          0.00858804	         35.91938078	          6.26756030	          1.55103755	        -14.28287933	          2.53498128	         -1.77865025	        -33.79643896	        -18.64495856	          1.43889914	        -18.47131869	         -8.30903004	         -2.32452819	         -1.55235038	         -2.90169511	         11.18454960	        -38.38878897	        -22.16841945	         -7.63792403	          0.20623616	        -31.33814733	          7.58479722	         58.02959879	         88.01643283	
          0.30029557	         -6.99740878	          3.00672398	          0.18114439	          0.83092417	          0.91871998	          0.00843198	         35.28649034	          6.69932795	          1.88651416	        -14.94704217	          2.32139995	         -2.60373792	        -30.84262967	        -19.37242654	          1.98290650	        -20.84544877	         -7.56016388	         -2.54134926	         -1.55543553	         -3.25369497	         11.11151402	        -38.76190374	        -22.22992281	         -8.01127984	         -0.05864603	        -31.26782392	          7.76134160	         58.55801360	         87.67745701	
          0.30744546	         -6.89426701	          3.20658545	          0.36047871	          0.85184510	          0.91975733	          0.00828825	         34.70396377	          7.06854598	          2.21721499	        -15.37298865	          2.16178509	         -3.33953889	        -28.23405724	        -20.45799097	          2.47507798	        -22.94626247	         -6.87308350	         -2.81253559	         -1.53730214	         -3.55107039	         11.04708747	        -38.99773028	        -22.32300184	         -8.27132588	         -0.36816333	        -31.17576916	          7.91228488	         59.04085299	         87.14772549	
